<svg width="512" height="512" viewBox="0 0 512 512" fill="none" xmlns="http://www.w3.org/2000/svg">
<rect width="512" height="512" rx="128" fill="#6366F1"/>
<path d="M256 128C256 128 200 160 200 224C200 288 256 320 256 320C256 320 312 288 312 224C312 160 256 128 256 128Z" fill="white"/>
<circle cx="256" cy="224" r="32" fill="#6366F1"/>
<path d="M160 352C160 352 200 384 256 384C312 384 352 352 352 352V320C352 320 312 352 256 352C200 352 160 320 160 320V352Z" fill="white"/>
<path d="M180 240H332C340.837 240 348 247.163 348 256V280C348 288.837 340.837 296 332 296H180C171.163 296 164 288.837 164 280V256C164 247.163 171.163 240 180 240Z" fill="white"/>
<rect x="184" y="260" width="144" height="16" rx="8" fill="#6366F1"/>
</svg>