<svg width="200" height="200" viewBox="0 0 200 200" fill="none" xmlns="http://www.w3.org/2000/svg">
<rect width="200" height="200" rx="40" fill="white"/>
<path d="M100 50C100 50 78.125 62.5 78.125 87.5C78.125 112.5 100 125 100 125C100 125 121.875 112.5 121.875 87.5C121.875 62.5 100 50 100 50Z" fill="#6366F1"/>
<circle cx="100" cy="87.5" r="12.5" fill="white"/>
<path d="M62.5 137.5C62.5 137.5 78.125 150 100 150C121.875 150 137.5 137.5 137.5 137.5V125C137.5 125 121.875 137.5 100 137.5C78.125 137.5 62.5 125 62.5 125V137.5Z" fill="#6366F1"/>
<path d="M70.3125 93.75H129.688C133.203 93.75 136.719 97.2656 136.719 100V109.375C136.719 112.891 133.203 115.625 129.688 115.625H70.3125C66.7969 115.625 64.0625 112.891 64.0625 109.375V100C64.0625 97.2656 66.7969 93.75 70.3125 93.75Z" fill="#6366F1"/>
<rect x="71.875" y="101.5625" width="56.25" height="6.25" rx="3.125" fill="white"/>
</svg>